#N canvas 795 252 548 488 10;
#X msg 71 365 reload;
#X obj 46 403 pyext pdflickr pdflickteria;
#X msg 125 314 init 03056e1a5eda7dd1d7ee6c1243894ead fbe5b6aacbf38aed
;
#X obj 46 440 print;
#X msg 46 332 detach \$1;
#X obj 46 308 tgl 15 0 empty empty empty 17 7 0 10 -262144 -1 -1 1
1;
#X obj 46 256 loadbang;
#X msg 46 282 1;
#X obj 36 40 gemhead;
#X obj 36 66 pix_video;
#X obj 148 260 pix_write;
#X msg 112 196 bang;
#X obj 31 130 pix_texture;
#X obj 371 155 gemwin;
#X msg 371 53 create;
#X obj 371 131 tgl 15 0 empty empty empty 17 7 0 10 -262144 -1 -1 0
1;
#X msg 371 105 dimen 640 480;
#X msg 371 79 destroy;
#X obj 129 43 bng 40 250 50 0 empty empty empty 17 7 0 10 -258113 -1
-1;
#X text 179 53 CAPTURE;
#X obj 31 156 rectangle 6 4;
#X obj 129 120 t b b b;
#X msg 168 156 symbol /tmp/capture;
#X msg 168 196 file \$1 1;
#X text 303 291 api key \, secret hash;
#X obj 205 348 delay 200;
#X obj 3 5 cnv 30 100 40 empty empty PD_FLICKR 20 12 0 14 -262144 -66577
0;
#X text 168 221 path \, image quality;
#X obj 125 290 loadbang;
#X obj 40 97 pix_grey;
#X msg 114 18 dialog;
#X msg 205 374 upload /tmp/flickr00000.jpg;
#X connect 0 0 1 0;
#X connect 1 0 3 0;
#X connect 2 0 1 1;
#X connect 4 0 1 0;
#X connect 5 0 4 0;
#X connect 6 0 7 0;
#X connect 7 0 5 0;
#X connect 8 0 9 0;
#X connect 9 0 29 0;
#X connect 11 0 10 0;
#X connect 12 0 20 0;
#X connect 14 0 13 0;
#X connect 15 0 13 0;
#X connect 16 0 13 0;
#X connect 17 0 13 0;
#X connect 18 0 21 0;
#X connect 20 0 10 0;
#X connect 21 0 25 0;
#X connect 21 1 11 0;
#X connect 21 2 22 0;
#X connect 22 0 23 0;
#X connect 23 0 10 0;
#X connect 25 0 31 0;
#X connect 28 0 2 0;
#X connect 29 0 12 0;
#X connect 30 0 9 0;
#X connect 31 0 1 2;
